<svg width="41" height="39" viewBox="0 0 41 39" fill="none" xmlns="http://www.w3.org/2000/svg">
<g id="Image 47" clip-path="url(#clip0_126_598)">
<g id="Group">
<g id="Group_2">
<g id="Group_3">
<g id="Group_4">
<g id="Group_5">
<g id="Group_6">
<g id="Layer_1">
<path id="Vector" d="M20.4997 39.4952C31.7221 39.4952 40.8197 30.898 40.8197 20.2928C40.8197 9.6876 31.7221 1.09039 20.4997 1.09039C9.27726 1.09039 0.179688 9.6876 0.179688 20.2928C0.179688 30.898 9.27726 39.4952 20.4997 39.4952Z" fill="#F5F2FD"/>
</g>
<g id="Layer_1_2">
<path id="Vector_2" d="M25.86 18.5432C25.852 18.5356 25.844 18.5281 25.836 18.5281L26.412 13.6367C26.036 12.8732 25.492 11.8753 25.492 10.7866C25.492 9.06294 26.292 6.87054 26.292 6.87054H23.94V8.56398C23.94 10.3859 22.412 11.8677 20.532 11.8677C20.524 11.8677 20.508 11.8677 20.5 11.8677C20.492 11.8677 20.476 11.8677 20.468 11.8677C18.588 11.8677 17.06 10.3859 17.06 8.56398V6.87054H14.708C14.708 6.87054 15.508 9.06294 15.508 10.7866C15.508 11.8753 14.956 12.8656 14.588 13.6367L15.188 18.7851C12.212 23.2682 10.932 27.7437 13.396 32.2268C13.684 32.7484 14.244 33.0886 14.868 33.0886H26.02C26.62 33.0886 27.188 32.7787 27.468 32.2797C30.036 27.6908 28.956 23.117 25.86 18.5432Z" fill="#00BDD6"/>
</g>
<g id="Layer_1_3">
<path id="Vector_3" d="M20.5001 13.7566C20.8713 13.7566 21.1721 13.4723 21.1721 13.1216C21.1721 12.7709 20.8713 12.4865 20.5001 12.4865C20.129 12.4865 19.8281 12.7709 19.8281 13.1216C19.8281 13.4723 20.129 13.7566 20.5001 13.7566Z" fill="#171A1F"/>
</g>
<g id="Layer_1_4">
<path id="Vector_4" d="M20.5001 16.3054C20.8713 16.3054 21.1721 16.0211 21.1721 15.6704C21.1721 15.3197 20.8713 15.0353 20.5001 15.0353C20.129 15.0353 19.8281 15.3197 19.8281 15.6704C19.8281 16.0211 20.129 16.3054 20.5001 16.3054Z" fill="#171A1F"/>
</g>
</g>
</g>
</g>
</g>
</g>
</g>
</g>
<defs>
<clipPath id="clip0_126_598">
<rect width="41" height="38" fill="white" transform="translate(0 0.772797)"/>
</clipPath>
</defs>
</svg>
