<svg width="39" height="38" viewBox="0 0 39 38" fill="none" xmlns="http://www.w3.org/2000/svg">
<g id="Image 46" clip-path="url(#clip0_126_615)">
<g id="Group">
<g id="Group_2">
<g id="Group_3">
<g id="Group_4">
<g id="Group_5">
<g id="Group_6">
<g id="Layer_1">
<path id="Vector" d="M19.4997 37.8668C30.7221 37.8668 39.8197 29.5084 39.8197 19.1978C39.8197 8.88721 30.7221 0.528809 19.4997 0.528809C8.27726 0.528809 -0.820313 8.88721 -0.820313 19.1978C-0.820313 29.5084 8.27726 37.8668 19.4997 37.8668Z" fill="#F1F4FD"/>
</g>
<g id="Layer_1_2">
<path id="Vector_2" d="M28.236 13.3924L30.084 10.5332C26.62 6.18936 22.58 6.55686 22.58 6.55686L19.5 11.1286L16.492 6.67446L16.42 6.55686C16.42 6.55686 12.38 6.18936 8.91602 10.5332L10.764 13.3924L13.18 11.4814C13.18 11.4814 16.356 16.5161 12.948 21.0731C12.948 21.0731 10.98 24.3733 11.596 29.8711C11.644 30.2974 12.036 30.6281 12.508 30.6281H15.076L23.924 30.6281H26.492C26.956 30.6281 27.356 30.2974 27.404 29.8711C28.02 24.3659 26.052 21.0731 26.052 21.0731C22.644 16.5161 25.82 11.4814 25.82 11.4814L28.236 13.3924Z" fill="#ED7D2D"/>
</g>
</g>
</g>
</g>
</g>
</g>
</g>
</g>
<defs>
<clipPath id="clip0_126_615">
<rect width="39" height="37" fill="white" transform="translate(0 0.772797)"/>
</clipPath>
</defs>
</svg>
