<svg width="24" height="25" viewBox="0 0 24 25" fill="none" xmlns="http://www.w3.org/2000/svg">
<g id="Calendar date 1">
<path id="Vector" d="M7.71429 12.38H6V13.2371H7.71429V12.38Z" stroke="#00BDD6" stroke-width="2.05714" stroke-miterlimit="10" stroke-linecap="square"/>
<path id="Vector_2" d="M12.8574 12.38H11.1431V13.2371H12.8574V12.38Z" stroke="#00BDD6" stroke-width="2.05714" stroke-miterlimit="10" stroke-linecap="square"/>
<path id="Vector_3" d="M7.71429 16.6657H6V17.5229H7.71429V16.6657Z" stroke="#00BDD6" stroke-width="2.05714" stroke-miterlimit="10" stroke-linecap="square"/>
<path id="Vector_4" d="M12.8574 16.6657H11.1431V17.5229H12.8574V16.6657Z" stroke="#00BDD6" stroke-width="2.05714" stroke-miterlimit="10" stroke-linecap="square"/>
<path id="Vector_5" d="M17.9999 12.38H16.2856V13.2371H17.9999V12.38Z" stroke="#00BDD6" stroke-width="2.05714" stroke-miterlimit="10" stroke-linecap="square"/>
<path id="Vector_6" d="M7.71429 12.38H6V13.2371H7.71429V12.38Z" fill="#00BDD6"/>
<path id="Vector_7" d="M12.8574 12.38H11.1431V13.2371H12.8574V12.38Z" fill="#00BDD6"/>
<path id="Vector_8" d="M7.71429 16.6657H6V17.5229H7.71429V16.6657Z" fill="#00BDD6"/>
<path id="Vector_9" d="M12.8574 16.6657H11.1431V17.5229H12.8574V16.6657Z" fill="#00BDD6"/>
<path id="Vector_10" d="M17.9999 12.38H16.2856V13.2371H17.9999V12.38Z" fill="#00BDD6"/>
<path id="Vector_11" d="M21.4284 5.52286L2.57129 5.52286L2.57129 20.9514L21.4284 20.9514L21.4284 5.52286Z" stroke="#00BDD6" stroke-width="2.05714" stroke-miterlimit="10" stroke-linecap="square"/>
<path id="Vector_12" d="M16.2856 5.52288V2.95145" stroke="#00BDD6" stroke-width="2.05714" stroke-miterlimit="10" stroke-linecap="square"/>
<path id="Vector_13" d="M7.71436 5.52288L7.71436 2.95145" stroke="#00BDD6" stroke-width="2.05714" stroke-miterlimit="10" stroke-linecap="square"/>
<path id="Vector_14" d="M2.57129 8.95145L21.4284 8.95145" stroke="#00BDD6" stroke-width="2.05714" stroke-miterlimit="10"/>
</g>
</svg>
