<svg width="25" height="25" viewBox="0 0 25 25" fill="none" xmlns="http://www.w3.org/2000/svg">
<g id="Cart speed">
<path id="Vector" d="M2.77051 16.2014L21.6277 16.2014" stroke="#565E6C" stroke-width="2.05714" stroke-miterlimit="10" stroke-linecap="square"/>
<path id="Vector_2" d="M7.05608 22.2014C8.00286 22.2014 8.77037 21.4339 8.77037 20.4871C8.77037 19.5403 8.00286 18.7728 7.05608 18.7728C6.10931 18.7728 5.3418 19.5403 5.3418 20.4871C5.3418 21.4339 6.10931 22.2014 7.05608 22.2014Z" stroke="#565E6C" stroke-width="2.05714" stroke-miterlimit="10" stroke-linecap="square"/>
<path id="Vector_3" d="M19.9135 22.2014C20.8603 22.2014 21.6278 21.4339 21.6278 20.4871C21.6278 19.5403 20.8603 18.7728 19.9135 18.7728C18.9667 18.7728 18.1992 19.5403 18.1992 20.4871C18.1992 21.4339 18.9667 22.2014 19.9135 22.2014Z" stroke="#565E6C" stroke-width="2.05714" stroke-miterlimit="10" stroke-linecap="square"/>
<path id="Vector_4" d="M7.91392 12.7728H4.48535" stroke="#565E6C" stroke-width="2.05714" stroke-miterlimit="10" stroke-linecap="square"/>
<path id="Vector_5" d="M2.77051 3.34424L6.19908 3.34424V5.91567L19.9134 5.91567L18.1991 12.7728" stroke="#565E6C" stroke-width="2.05714" stroke-miterlimit="10" stroke-linecap="square"/>
<path id="Vector_6" d="M6.19922 9.34424H9.62779" stroke="#565E6C" stroke-width="2.05714" stroke-miterlimit="10" stroke-linecap="square"/>
</g>
</svg>
