<svg width="25" height="25" viewBox="0 0 25 25" fill="none" xmlns="http://www.w3.org/2000/svg">
<g id="Circle 09">
<path id="Vector" d="M18.3896 20.0543C18.2739 18.0074 17.1064 17.3577 15.399 16.7886C14.0944 16.354 13.7353 14.9843 13.6367 14.2574" stroke="#565E6C" stroke-width="2.05714" stroke-miterlimit="10"/>
<path id="Vector_2" d="M11.1609 14.2566C11.0641 14.98 10.7118 16.3514 9.39951 16.7886C7.69208 17.3577 6.52294 18.0057 6.40723 20.0526" stroke="#565E6C" stroke-width="2.05714" stroke-miterlimit="10"/>
<path id="Vector_3" d="M12.3993 14.4871C10.5058 14.4871 8.9707 12.952 8.9707 11.0585L8.9707 10.2014C8.9707 8.30797 10.5058 6.77283 12.3993 6.77283C14.2927 6.77283 15.8278 8.30797 15.8278 10.2014V11.0585C15.8278 12.952 14.2927 14.4871 12.3993 14.4871Z" stroke="#565E6C" stroke-width="2.05714" stroke-miterlimit="10" stroke-linecap="square"/>
<path id="Vector_4" d="M12.3993 22.2014C17.6065 22.2014 21.8278 17.9801 21.8278 12.7728C21.8278 7.56555 17.6065 3.34424 12.3993 3.34424C7.19202 3.34424 2.9707 7.56555 2.9707 12.7728C2.9707 17.9801 7.19202 22.2014 12.3993 22.2014Z" stroke="#565E6C" stroke-width="2.05714" stroke-miterlimit="10" stroke-linecap="square"/>
</g>
</svg>
