<svg width="25" height="25" viewBox="0 0 25 25" fill="none" xmlns="http://www.w3.org/2000/svg">
<g id="Discount 2">
<path id="Vector" d="M18.7999 15.3443L21.3714 12.7728L18.7999 10.2014V6.77284L15.3714 6.77284L12.7999 4.20142L10.2285 6.77284L6.79994 6.77284L6.79994 10.2014L4.22852 12.7728L6.79994 15.3443L6.79994 18.7728H10.2285L12.7999 21.3443L15.3714 18.7728H18.7999V15.3443Z" stroke="#565E6C" stroke-width="2.05714" stroke-miterlimit="10" stroke-linecap="square"/>
<path id="Vector_2" d="M15.3714 10.2014L10.2285 15.3443" stroke="#565E6C" stroke-width="2.05714" stroke-miterlimit="10" stroke-linecap="square"/>
<path id="Vector_3" d="M10.6568 11.9157C11.3669 11.9157 11.9425 11.34 11.9425 10.63C11.9425 9.91987 11.3669 9.34424 10.6568 9.34424C9.94673 9.34424 9.37109 9.91987 9.37109 10.63C9.37109 11.34 9.94673 11.9157 10.6568 11.9157Z" fill="#565E6C"/>
<path id="Vector_4" d="M14.9429 16.2014C15.653 16.2014 16.2287 15.6258 16.2287 14.9157C16.2287 14.2056 15.653 13.63 14.9429 13.63C14.2329 13.63 13.6572 14.2056 13.6572 14.9157C13.6572 15.6258 14.2329 16.2014 14.9429 16.2014Z" fill="#565E6C"/>
</g>
</svg>
