<svg width="25" height="25" viewBox="0 0 25 25" fill="none" xmlns="http://www.w3.org/2000/svg">
<g id="Home">
<path id="Vector" d="M12.6 7.52368L4.88574 13.8357L4.88574 21.3443C4.88574 21.8174 5.26974 22.2014 5.74289 22.2014H10.8857V17.4871C10.8857 17.2505 11.0777 17.0585 11.3143 17.0585H13.8857C14.1223 17.0585 14.3143 17.2505 14.3143 17.4871L14.3143 22.2014L19.4572 22.2014C19.9303 22.2014 20.3143 21.8174 20.3143 21.3443L20.3143 13.8357L12.6 7.52368Z" fill="#00BDD6"/>
<path id="Vector_2" d="M22.028 12.7729C21.8368 12.7729 21.6448 12.7094 21.4854 12.5792L12.5994 5.30887L3.71341 12.5792C3.34655 12.8783 2.80741 12.8252 2.50741 12.4583C2.20741 12.0914 2.26141 11.5514 2.62826 11.2523L12.0568 3.53801C12.3723 3.27916 12.8265 3.27916 13.1428 3.53801L22.5714 11.2523C22.9374 11.5523 22.9914 12.0914 22.6923 12.4583C22.5225 12.6657 22.2757 12.7729 22.028 12.7729Z" fill="#00BDD6"/>
</g>
</svg>
