<svg width="71" height="40" viewBox="0 0 71 40" fill="none" xmlns="http://www.w3.org/2000/svg">
<g id="Image 31" clip-path="url(#clip0_23_98)">
<g id="Group">
<g id="Group_2">
<g id="Group_3">
<g id="Group_4">
<g id="Group_5">
<g id="Group_6">
<g id="Group_7">
<path id="Vector" d="M32.7866 16.561C30.5754 16.561 29 18.0728 29 20.1427V20.1569C29 22.0925 30.3705 23.5196 32.3274 23.5196C33.7261 23.5196 34.6163 22.8061 34.9907 22.0007H35.132C35.132 22.0784 35.1249 22.1561 35.1249 22.2338C35.0472 24.1836 34.362 25.7661 32.7442 25.7661C31.847 25.7661 31.2183 25.2998 30.9498 24.5863L30.9286 24.5157H29.1342L29.1484 24.5934C29.4733 26.1546 30.8721 27.2638 32.7442 27.2638C35.3086 27.2638 36.8557 25.2292 36.8557 21.7958V21.7817C36.8557 18.1082 34.9624 16.561 32.7866 16.561ZM32.7795 22.1208C31.6209 22.1208 30.7803 21.2731 30.7803 20.0933V20.0792C30.7803 18.9418 31.6774 18.0446 32.8007 18.0446C33.931 18.0446 34.8141 18.9559 34.8141 20.1215V20.1357C34.8141 21.2872 33.931 22.1208 32.7795 22.1208Z" fill="white"/>
</g>
<g id="Group_8">
<path id="Vector_2" d="M39.7158 20.4041C40.3657 20.4041 40.839 19.9096 40.839 19.2879C40.839 18.6592 40.3657 18.1717 39.7158 18.1717C39.0729 18.1717 38.5925 18.6592 38.5925 19.2879C38.5925 19.9096 39.0729 20.4041 39.7158 20.4041ZM39.7158 25.646C40.3657 25.646 40.839 25.1585 40.839 24.5298C40.839 23.9011 40.3657 23.4136 39.7158 23.4136C39.0729 23.4136 38.5925 23.9011 38.5925 24.5298C38.5925 25.1585 39.0729 25.646 39.7158 25.646Z" fill="white"/>
</g>
<g id="Group_9">
<path id="Vector_3" d="M47.521 27.0094H49.2659V25.0526H50.6364V23.5478H49.2659V16.8154H46.6873C45.3027 18.9206 43.8545 21.266 42.5334 23.562V25.0526H47.521V27.0094ZM44.2289 23.5902V23.4842C45.2179 21.7534 46.3977 19.8672 47.4432 18.2707H47.5492V23.5902H44.2289Z" fill="white"/>
</g>
<g id="Group_10">
<path id="Vector_4" d="M54.5136 27.0094H56.3363V16.8154H54.5207L51.8574 18.6875V20.4041L54.3935 18.6097H54.5136V27.0094Z" fill="white"/>
</g>
</g>
</g>
</g>
</g>
</g>
</g>
</g>
<defs>
<clipPath id="clip0_23_98">
<rect width="72" height="40" fill="white" transform="translate(-1 -0.224609)"/>
</clipPath>
</defs>
</svg>
