<svg width="92" height="40" viewBox="0 0 92 40" fill="none" xmlns="http://www.w3.org/2000/svg">
<g id="Image 32" clip-path="url(#clip0_23_115)">
<g id="Group">
<g id="Group_2">
<g id="Group_3">
<g id="Group_4">
<g id="Group_5">
<g id="Group_6">
<g id="Group_7">
<path id="Vector" opacity="0.35" d="M55.0532 19.9456C55.0532 18.0126 56.6202 16.4456 58.5532 16.4456H71.8298C73.7628 16.4456 75.3298 18.0126 75.3298 19.9456V23.0094C75.3298 24.9424 73.7628 26.5094 71.8298 26.5094H58.5532C56.6202 26.5094 55.0532 24.9424 55.0532 23.0094V19.9456Z" stroke="white" stroke-linecap="round"/>
</g>
<g id="Group_8">
<path id="Vector_2" opacity="0.4" d="M76.6809 20.2009V23.7927C77.4036 23.4885 77.8735 22.7808 77.8735 21.9968C77.8735 21.2128 77.4036 20.5051 76.6809 20.2009Z" fill="white"/>
</g>
<g id="Group_9">
<path id="Vector_3" d="M56.2554 19.6477C56.2554 18.5431 57.1509 17.6477 58.2554 17.6477H72.1278C73.2323 17.6477 74.1278 18.5431 74.1278 19.6477V23.3073C74.1278 24.4118 73.2323 25.3073 72.1278 25.3073H58.2554C57.1509 25.3073 56.2554 24.4118 56.2554 23.3073V19.6477Z" fill="white"/>
</g>
<g id="Group_10">
<path id="Vector_4" fill-rule="evenodd" clip-rule="evenodd" d="M41.3621 18.9988C43.4613 18.9989 45.4802 19.8222 47.0016 21.2986C47.1162 21.4126 47.2993 21.4111 47.4121 21.2954L48.5072 20.1672C48.5644 20.1085 48.5962 20.029 48.5957 19.9462C48.5953 19.8635 48.5625 19.7843 48.5047 19.7263C44.5116 15.8201 38.212 15.8201 34.2189 19.7263C34.161 19.7843 34.1282 19.8634 34.1277 19.9461C34.1271 20.0289 34.1589 20.1085 34.216 20.1672L35.3115 21.2954C35.4242 21.4113 35.6075 21.4128 35.722 21.2986C37.2435 19.8221 39.2627 18.9988 41.3621 18.9988ZM41.3923 22.4046C42.5456 22.4045 43.6579 22.8421 44.5128 23.6324C44.6284 23.7445 44.8106 23.7421 44.9233 23.6269L46.0172 22.4987C46.0748 22.4396 46.1067 22.3593 46.1059 22.2759C46.1051 22.1924 46.0715 22.1128 46.0127 22.0549C43.4093 19.5829 39.3775 19.5829 36.774 22.0549C36.7152 22.1128 36.6816 22.1925 36.6809 22.2759C36.6801 22.3594 36.7122 22.4396 36.7699 22.4987L37.8634 23.6269C37.9762 23.7421 38.1583 23.7445 38.274 23.6324C39.1283 22.8427 40.2397 22.4051 41.3923 22.4046ZM43.6166 24.6066C43.6183 24.6903 43.5861 24.7709 43.5276 24.8295L41.6354 26.7786C41.58 26.8359 41.5044 26.8682 41.4255 26.8682C41.3466 26.8682 41.2709 26.8359 41.2155 26.7786L39.323 24.8295C39.2645 24.7709 39.2324 24.6902 39.2341 24.6065C39.2358 24.5229 39.2713 24.4437 39.3322 24.3876C40.5406 23.3443 42.3104 23.3443 43.5188 24.3876C43.5796 24.4437 43.615 24.5229 43.6166 24.6066Z" fill="white"/>
</g>
<g id="Group_11">
<path id="Vector_5" d="M20.5105 19.3498C20.5105 18.8798 20.8916 18.4988 21.3616 18.4988H22.2127C22.6827 18.4988 23.0637 18.8798 23.0637 19.3498V26.1583C23.0637 26.6284 22.6827 27.0094 22.2127 27.0094H21.3616C20.8916 27.0094 20.5105 26.6284 20.5105 26.1583V19.3498Z" fill="white"/>
</g>
<g id="Group_12">
<path id="Vector_6" d="M24.7661 17.6477C24.7661 17.1777 25.1471 16.7966 25.6171 16.7966H26.4682C26.9382 16.7966 27.3192 17.1777 27.3192 17.6477V26.1583C27.3192 26.6284 26.9382 27.0094 26.4682 27.0094H25.6171C25.1471 27.0094 24.7661 26.6284 24.7661 26.1583V17.6477Z" fill="white"/>
</g>
<g id="Group_13">
<path id="Vector_7" d="M16.2554 22.3285C16.2554 21.8585 16.6365 21.4775 17.1065 21.4775H17.9575C18.4276 21.4775 18.8086 21.8585 18.8086 22.3285V26.1583C18.8086 26.6284 18.4276 27.0094 17.9575 27.0094H17.1065C16.6365 27.0094 16.2554 26.6284 16.2554 26.1583V22.3285Z" fill="white"/>
</g>
<g id="Group_14">
<path id="Vector_8" d="M12 24.4562C12 23.9862 12.381 23.6051 12.8511 23.6051H13.7021C14.1722 23.6051 14.5532 23.9862 14.5532 24.4562V26.1583C14.5532 26.6284 14.1722 27.0094 13.7021 27.0094H12.8511C12.381 27.0094 12 26.6284 12 26.1583V24.4562Z" fill="white"/>
</g>
</g>
</g>
</g>
</g>
</g>
</g>
</g>
<defs>
<clipPath id="clip0_23_115">
<rect width="96" height="40" fill="white" transform="translate(0 -0.224609)"/>
</clipPath>
</defs>
</svg>
