<svg width="46" height="33" viewBox="0 0 46 33" fill="none" xmlns="http://www.w3.org/2000/svg">
<g id="Image 47" clip-path="url(#clip0_97_143)">
<g id="Group">
<g id="Group_2">
<g id="Group_3">
<g id="Group_4">
<g id="Group_5">
<g id="Group_6">
<g id="Group_7">
<path id="Vector" d="M42.8899 0.779999H3.10988C1.60215 0.779999 0.379883 2.00226 0.379883 3.51V29.25C0.379883 30.7577 1.60215 31.98 3.10988 31.98H42.8899C44.3976 31.98 45.6199 30.7577 45.6199 29.25V3.51C45.6199 2.00226 44.3976 0.779999 42.8899 0.779999Z" fill="white" stroke="white" stroke-width="0.78"/>
</g>
<g id="Group_8">
<path id="Vector_2" d="M20.4238 22.3297H17.3599L19.2762 11.1361H22.3399L20.4238 22.3297Z" fill="#15195A"/>
</g>
<g id="Group_9">
<path id="Vector_3" d="M31.5282 11.4054C30.9239 11.1789 29.9653 10.9288 28.7801 10.9288C25.7544 10.9288 23.6238 12.4529 23.6108 14.632C23.5856 16.2397 25.1362 17.1327 26.296 17.6688C27.4813 18.2166 27.8843 18.5741 27.8843 19.0623C27.8722 19.8122 26.9265 20.1579 26.0443 20.1579C24.8211 20.1579 24.1656 19.9797 23.1696 19.5625L22.7662 19.3837L22.3374 21.8964C23.056 22.2057 24.3799 22.4801 25.7544 22.4921C28.9693 22.4921 31.0622 20.9915 31.0871 18.6694C31.0993 17.3952 30.2805 16.4188 28.5152 15.6209C27.4437 15.1087 26.7874 14.7634 26.7874 14.2394C26.7999 13.7629 27.3424 13.275 28.5521 13.275C29.5482 13.2511 30.28 13.4773 30.8344 13.7037L31.1115 13.8224L31.5282 11.4054Z" fill="#15195A"/>
</g>
<g id="Group_10">
<path id="Vector_4" fill-rule="evenodd" clip-rule="evenodd" d="M37.0025 11.1361H39.3725L41.8443 22.3295H39.0073C39.0073 22.3295 38.7297 21.0434 38.6418 20.6504H34.708C34.5943 20.9479 34.0649 22.3295 34.0649 22.3295H30.8501L35.4012 12.0648C35.7164 11.3384 36.2717 11.1361 37.0025 11.1361ZM36.8137 15.2323C36.8137 15.2323 35.8429 17.7212 35.5905 18.3642H38.1372C38.0112 17.8045 37.431 15.1252 37.431 15.1252L37.2168 14.1607C37.1267 14.409 36.9963 14.7505 36.9084 14.9809C36.8488 15.1369 36.8086 15.242 36.8137 15.2323Z" fill="#15195A"/>
</g>
<g id="Group_11">
<path id="Vector_5" fill-rule="evenodd" clip-rule="evenodd" d="M4.08851 11.1261H9.018C9.68615 11.1497 10.2283 11.3521 10.4048 12.0671L11.476 17.2095L11.4765 17.211L11.8043 18.7591L14.8049 11.1261H18.0447L13.2288 22.3078H9.98879L7.25799 12.5816C6.31576 12.0612 5.2404 11.6427 4.03809 11.3523L4.08851 11.1261Z" fill="#15195A"/>
</g>
</g>
</g>
</g>
</g>
</g>
</g>
</g>
<defs>
<clipPath id="clip0_97_143">
<rect width="46" height="32" fill="white" transform="translate(0 0.380005)"/>
</clipPath>
</defs>
</svg>
