<svg width="46" height="43" viewBox="0 0 46 43" fill="none" xmlns="http://www.w3.org/2000/svg">
<g id="Image 41">
<g clip-path="url(#clip0_126_580)">
<g id="Group">
<g id="Group_2">
<g id="Group_3">
<g id="Group_4">
<g id="Group_5">
<g id="Group_6">
<g id="Layer_1">
<path id="Vector" d="M22.9996 42.2248C35.6249 42.2248 45.8596 32.2175 45.8596 19.8728C45.8596 7.52814 35.6249 -2.47919 22.9996 -2.47919C10.3744 -2.47919 0.139648 7.52814 0.139648 19.8728C0.139648 32.2175 10.3744 42.2248 22.9996 42.2248Z" fill="#EBFDFF"/>
</g>
<g id="Layer_1_2">
<path id="Vector_2" d="M38.3667 24.8378L32.4717 16.117C26.0547 18.053 20.2767 18.2114 13.5267 16.117L7.63171 24.8378C6.96571 25.8322 7.19071 27.1698 8.17171 27.8826C16.9737 34.2362 29.0247 34.2362 37.8267 27.8826C38.8077 27.1698 39.0327 25.8322 38.3667 24.8378Z" fill="#4CE77F"/>
</g>
<g id="Layer_1_3">
<path id="Vector_3" d="M29.3039 16.762C29.2769 16.63 29.2409 16.4892 29.2139 16.3572C26.7749 5.61241 24.4979 4.37161 22.9949 4.37161C21.4919 4.37161 19.2149 5.61241 16.7759 16.3572C16.7489 16.498 16.7129 16.6388 16.6859 16.7708C15.4979 22.1388 14.7239 27.982 14.5889 31.0532C15.2189 31.2732 15.8489 31.4668 16.4879 31.634C16.5419 28.8532 17.3249 22.7372 18.5669 17.1228C18.5939 16.9996 18.6209 16.8852 18.6479 16.762C20.5289 8.44601 22.3109 6.24601 22.9949 6.24601C23.6789 6.24601 25.4609 8.44601 27.3419 16.762C27.3689 16.8764 27.3959 16.9908 27.4229 17.1052C28.6739 22.7284 29.4569 28.8532 29.5109 31.634C30.1499 31.4668 30.7799 31.2732 31.4099 31.0532C31.2659 27.982 30.4919 22.13 29.3039 16.762Z" fill="#171A1F"/>
</g>
</g>
</g>
</g>
</g>
</g>
</g>
</g>
</g>
<defs>
<clipPath id="clip0_126_580">
<rect y="0.772797" width="46" height="42" rx="21" fill="white"/>
</clipPath>
</defs>
</svg>
