<svg width="42" height="41" viewBox="0 0 42 41" fill="none" xmlns="http://www.w3.org/2000/svg">
<g id="Image 43" clip-path="url(#clip0_126_652)">
<g id="Group">
<g id="Group_2">
<g id="Group_3">
<g id="Group_4">
<g id="Group_5">
<g id="Group_6">
<g id="Layer_1">
<path id="Vector" d="M20.9997 43.1088C32.2221 43.1088 41.3197 33.5563 41.3197 21.7728C41.3197 9.98925 32.2221 0.436798 20.9997 0.436798C9.77726 0.436798 0.679688 9.98925 0.679688 21.7728C0.679688 33.5563 9.77726 43.1088 20.9997 43.1088Z" fill="#FDF2F2"/>
</g>
<g id="Layer_1_2">
<path id="Vector_2" d="M32.0635 18.8748L23.7595 10.1556L20.9515 11.5752L11.2875 21.7224L9.93555 24.6708L18.2395 33.39L21.0475 31.9704L30.7115 21.8232L32.0635 18.8748Z" fill="#171A1F"/>
</g>
<g id="Layer_1_3">
<path id="Vector_3" d="M21.0446 29.6635L28.5146 21.82L20.9546 13.882L13.4846 21.7255L21.0446 29.6635Z" fill="white"/>
</g>
<g id="Layer_1_4">
<path id="Vector_4" d="M34.5969 14.8964L27.9189 7.88446L22.9029 13.1513L29.5809 20.1632L34.5969 14.8964Z" fill="#F2C263"/>
</g>
<g id="Layer_1_5">
<path id="Vector_5" d="M19.0969 30.3943L12.4189 23.3824L7.40294 28.6492L14.0809 35.6611L19.0969 30.3943Z" fill="#F2C263"/>
</g>
<g id="Layer_1_6">
<path id="Vector_6" d="M22.0375 21.7749L24.1975 19.5153L23.1815 18.4485L21.0295 20.7165L20.0935 21.6909L20.0215 21.7749L22.6375 24.5301L23.6535 23.4633L22.0375 21.7749Z" fill="#4069E5"/>
</g>
</g>
</g>
</g>
</g>
</g>
</g>
</g>
<defs>
<clipPath id="clip0_126_652">
<rect width="42" height="40" fill="white" transform="translate(0 0.772797)"/>
</clipPath>
</defs>
</svg>
