<svg width="39" height="38" viewBox="0 0 39 38" fill="none" xmlns="http://www.w3.org/2000/svg">
<g id="Image 48">
<g clip-path="url(#clip0_126_630)">
<g id="Group">
<g id="Group_2">
<g id="Group_3">
<g id="Group_4">
<g id="Group_5">
<g id="Group_6">
<g id="Layer_1">
<path id="Vector" d="M19.4997 37.8668C30.7221 37.8668 39.8197 29.5084 39.8197 19.1978C39.8197 8.88721 30.7221 0.528809 19.4997 0.528809C8.27726 0.528809 -0.820312 8.88721 -0.820312 19.1978C-0.820312 29.5084 8.27726 37.8668 19.4997 37.8668Z" fill="#FEF6F1"/>
</g>
<g id="Layer_1_2">
<path id="Vector_2" d="M32.7274 13.0535H32.0714C31.9834 12.833 31.8714 12.6052 31.7354 12.3847C30.5274 10.4222 27.8634 9.90037 26.1914 11.51C24.5834 9.95917 22.0474 10.3855 20.7914 12.1715C20.2874 11.8187 19.7434 11.6423 19.1674 11.657C18.5434 11.6717 18.0234 11.9143 17.6314 12.1789C16.3674 10.3928 13.8394 9.95917 12.2234 11.51C10.5514 9.90037 7.87935 10.4222 6.67935 12.3847C6.54335 12.6125 6.43135 12.833 6.34335 13.0535H5.68735C5.15935 13.0535 4.73535 13.4431 4.73535 13.9282C4.73535 14.4133 5.15935 14.8028 5.68735 14.8028H6.07135C6.07935 14.8396 6.07935 14.8837 6.08735 14.9131C6.66335 18.4558 12.2234 21.3296 12.2234 21.3296C12.2234 21.3296 17.7834 18.4558 18.3594 14.9131C18.4234 14.5235 18.4074 14.009 18.2394 13.4431C18.4554 13.2446 18.8074 12.9947 19.1994 12.9874C19.5114 12.9874 19.8314 13.1344 20.1594 13.4431C19.9994 14.009 19.9834 14.5235 20.0394 14.9131C20.6154 18.4558 26.1754 21.3296 26.1754 21.3296C26.1754 21.3296 31.7354 18.4558 32.3114 14.9131C32.3194 14.8763 32.3194 14.8396 32.3274 14.8028H32.7114C33.2394 14.8028 33.6633 14.4133 33.6633 13.9282C33.6793 13.4504 33.2474 13.0535 32.7274 13.0535Z" fill="#00BDD6"/>
</g>
<g id="Layer_1_3">
<path id="Vector_3" d="M25.8493 19.4335C24.9853 18.9558 21.8813 17.1183 21.5213 15.0015C21.4893 14.8104 21.4253 14.1415 21.9293 13.3477C22.3853 12.6274 23.1853 12.1791 24.0173 12.1791C24.5853 12.1791 25.1053 12.3849 25.5213 12.7744L25.8493 13.0831L26.1773 12.7744C26.5933 12.3849 27.1133 12.1791 27.6813 12.1791C28.5133 12.1791 29.3133 12.6274 29.7693 13.3477C30.2733 14.1415 30.2093 14.8177 30.1773 15.0015C29.8253 17.1183 26.7213 18.9558 25.8493 19.4335Z" fill="white"/>
</g>
<g id="Layer_1_4">
<path id="Vector_4" d="M12.5592 19.4335C11.6952 18.9558 8.59124 17.1183 8.23124 15.0015C8.19924 14.8104 8.13524 14.1415 8.63924 13.3477C9.09524 12.6274 9.89524 12.1791 10.7272 12.1791C11.2952 12.1791 11.8152 12.3849 12.2312 12.7744L12.5592 13.0831L12.8872 12.7744C13.3032 12.3849 13.8232 12.1791 14.3912 12.1791C15.2232 12.1791 16.0232 12.6274 16.4792 13.3477C16.9832 14.1415 16.9192 14.8177 16.8872 15.0015C16.5272 17.1183 13.4232 18.9558 12.5592 19.4335Z" fill="white"/>
</g>
<g id="Layer_1_5">
<path id="Vector_5" d="M27.0174 27.7955C27.0174 27.0238 23.0974 24.4807 21.4894 24.4807C20.9774 24.4807 20.4894 24.613 20.0734 24.8408C19.8014 24.9878 19.5054 25.0613 19.2094 25.054C18.9134 25.054 18.6174 24.9878 18.3454 24.8408C17.9294 24.613 17.4414 24.4807 16.9294 24.4807C15.3214 24.4807 11.4014 27.0164 11.4014 27.7955C11.4014 28.3762 14.7294 31.5146 19.2014 31.4485H19.2094H19.2174C23.6894 31.5146 27.0174 28.3688 27.0174 27.7955Z" fill="#00BDD6"/>
</g>
<g id="Layer_1_6">
<path id="Vector_6" d="M24.9374 27.9653C24.9374 27.9653 22.3694 28.6415 19.2094 28.6415C16.0414 28.6415 13.4814 27.9653 13.4814 27.9653C13.4814 27.9653 16.0494 27.2891 19.2094 27.2891C22.3694 27.2891 24.9374 27.9653 24.9374 27.9653Z" fill="white"/>
</g>
</g>
</g>
</g>
</g>
</g>
</g>
</g>
</g>
<defs>
<clipPath id="clip0_126_630">
<rect y="0.772797" width="39" height="37" rx="18.5" fill="white"/>
</clipPath>
</defs>
</svg>
