<svg width="20" height="21" viewBox="0 0 20 21" fill="none" xmlns="http://www.w3.org/2000/svg">
<g id="Lock">
<path id="Vector" d="M15 18.2754L5 18.2754C4.172 18.2754 3.5 17.6034 3.5 16.7754L3.5 11.7754C3.5 10.9474 4.172 10.2754 5 10.2754L15 10.2754C15.828 10.2754 16.5 10.9474 16.5 11.7754V16.7754C16.5 17.6034 15.828 18.2754 15 18.2754Z" stroke="#171A1F" stroke-linecap="round" stroke-linejoin="round"/>
<path id="Vector_2" d="M6.5 8.27539V6.77539C6.5 4.84239 8.067 3.27539 10 3.27539C11.933 3.27539 13.5 4.84239 13.5 6.77539V8.27539" stroke="#171A1F" stroke-linecap="round" stroke-linejoin="round"/>
<path id="Vector_3" d="M10 15.7754C10.8284 15.7754 11.5 15.1038 11.5 14.2754C11.5 13.447 10.8284 12.7754 10 12.7754C9.17157 12.7754 8.5 13.447 8.5 14.2754C8.5 15.1038 9.17157 15.7754 10 15.7754Z" stroke="#171A1F" stroke-linecap="round" stroke-linejoin="round"/>
</g>
</svg>
