<svg width="20" height="21" viewBox="0 0 20 21" fill="none" xmlns="http://www.w3.org/2000/svg">
<g id="Logo twitter 4">
<path id="Vector" d="M18.0002 5.49507C17.4002 5.74507 16.8002 5.94507 16.1002 5.99507C16.8002 5.59507 17.3002 4.94507 17.5502 4.19507C16.9002 4.59507 16.2002 4.84507 15.4502 4.99507C14.8502 4.34507 14.0002 3.94507 13.1002 3.94507C11.3002 3.94507 9.8002 5.39507 9.8002 7.24507C9.8002 7.49507 9.8502 7.74507 9.9002 7.99507C7.1502 7.84507 4.7502 6.54507 3.1002 4.54507C2.8002 5.04507 2.6502 5.59507 2.6502 6.19507C2.6502 7.34507 3.2502 8.34507 4.1002 8.94507C3.5502 8.94507 3.0502 8.79507 2.6002 8.54507V8.59507C2.6002 10.1951 3.7502 11.4951 5.2502 11.7951C4.9502 11.8451 4.7002 11.8951 4.4002 11.8951C4.2002 11.8951 4.0002 11.8951 3.8002 11.8451C4.2002 13.1451 5.4502 14.0951 6.8502 14.1451C5.7502 15.0451 4.3002 15.5451 2.7502 15.5451C2.5002 15.5451 2.2002 15.5451 1.9502 15.4951C3.4502 16.3951 5.2002 16.9451 7.0502 16.9451C13.1002 16.9451 16.4002 11.9451 16.4002 7.59507C16.4002 7.44507 16.4002 7.29507 16.4002 7.19507C17.0002 6.69507 17.5502 6.14507 18.0002 5.49507Z" fill="white"/>
</g>
</svg>
