<svg width="20" height="21" viewBox="0 0 20 21" fill="none" xmlns="http://www.w3.org/2000/svg">
<g id="Logo facebook 4">
<path id="Vector" d="M18 10.445C17.9998 8.91625 17.5615 7.41954 16.737 6.1321C15.9126 4.84466 14.7365 3.82041 13.3481 3.1806C11.9596 2.54078 10.4169 2.31221 8.90257 2.52192C7.38823 2.73164 5.9657 3.37087 4.80337 4.36394C3.64104 5.35701 2.7876 6.66233 2.34407 8.12536C1.90054 9.5884 1.88551 11.1479 2.30075 12.6192C2.71599 14.0905 3.54411 15.412 4.68708 16.4273C5.83004 17.4426 7.23999 18.1092 8.75 18.348V12.7575H6.719L6.719 10.445L8.75 10.445V8.68253C8.75 6.67753 9.9445 5.57003 11.7715 5.57003C12.3715 5.57836 12.9701 5.63049 13.5625 5.72603L13.5625 7.69503H12.5535C12.3816 7.6722 12.2067 7.68835 12.0418 7.74228C11.877 7.79622 11.7264 7.88656 11.6012 8.00661C11.476 8.12667 11.3794 8.27335 11.3186 8.4358C11.2578 8.59824 11.2344 8.77229 11.25 8.94503V10.445H13.469L13.114 12.7575L11.25 12.7575L11.25 18.348C13.1319 18.0503 14.8458 17.0907 16.0832 15.642C17.3206 14.1932 18.0003 12.3503 18 10.445Z" fill="white"/>
</g>
</svg>
