<svg width="20" height="21" viewBox="0 0 20 21" fill="none" xmlns="http://www.w3.org/2000/svg">
<g id="Logo instagram 1">
<path id="Vector" d="M10 4.29507C12 4.29507 12.24 4.30257 13.0305 4.33857C13.5062 4.34418 13.9774 4.43163 14.4235 4.59707C14.7492 4.71728 15.0437 4.90899 15.2855 5.15807C15.5346 5.39986 15.7263 5.69441 15.8465 6.02007C16.0119 6.46613 16.0994 6.93734 16.105 7.41307C16.141 8.20507 16.15 8.44507 16.15 10.4451C16.15 12.4451 16.1425 12.6851 16.1065 13.4756C16.1009 13.9513 16.0134 14.4225 15.848 14.8686C15.7232 15.1919 15.5321 15.4855 15.287 15.7306C15.0419 15.9756 14.7483 16.1667 14.425 16.2916C13.9789 16.457 13.5077 16.5445 13.032 16.5501C12.2415 16.5861 12.004 16.5936 10.0015 16.5936C7.999 16.5936 7.7615 16.5861 6.971 16.5501C6.49528 16.5445 6.02407 16.457 5.578 16.2916C5.25234 16.1714 4.95779 15.9797 4.716 15.7306C4.46692 15.4888 4.27522 15.1942 4.155 14.8686C3.98956 14.4225 3.90211 13.9513 3.8965 13.4756C3.859 12.6851 3.85 12.4476 3.85 10.4451C3.85 8.44257 3.8575 8.20507 3.8935 7.41457C3.89911 6.93884 3.98656 6.46763 4.152 6.02157C4.27265 5.69577 4.46487 5.4012 4.7145 5.15957C4.95629 4.91049 5.25084 4.71878 5.5765 4.59857C6.02257 4.43313 6.49378 4.34568 6.9695 4.34007C7.76 4.30407 8 4.29507 10 4.29507ZM10 2.94507C7.963 2.94507 7.7075 2.95357 6.908 2.99007C6.28561 3.00325 5.66993 3.12159 5.087 3.34007C4.58688 3.52829 4.13373 3.82311 3.759 4.20407C3.37751 4.57865 3.08216 5.03181 2.8935 5.53207C2.67502 6.115 2.55669 6.73068 2.5435 7.35307C2.5085 8.15257 2.5 8.40807 2.5 10.4451C2.5 12.4821 2.5085 12.7376 2.545 13.5371C2.55819 14.1595 2.67652 14.7751 2.895 15.3581C3.08366 15.8583 3.37901 16.3115 3.7605 16.6861C4.13508 17.0676 4.58825 17.3629 5.0885 17.5516C5.67143 17.77 6.28711 17.8884 6.9095 17.9016C7.7095 17.9381 7.9645 17.9466 10.0015 17.9466C12.0385 17.9466 12.294 17.9381 13.0935 17.9016C13.7159 17.8884 14.3316 17.77 14.9145 17.5516C15.4125 17.3585 15.8648 17.0638 16.2425 16.6861C16.6202 16.3084 16.915 15.8561 17.108 15.3581C17.3265 14.7751 17.4448 14.1595 17.458 13.5371C17.4945 12.7371 17.503 12.4821 17.503 10.4451C17.503 8.40807 17.4945 8.15257 17.458 7.35307C17.4448 6.73068 17.3265 6.115 17.108 5.53207C16.9193 5.03181 16.624 4.57865 16.2425 4.20407C15.8679 3.82257 15.4148 3.52723 14.9145 3.33857C14.3316 3.12009 13.7159 3.00175 13.0935 2.98857C12.2925 2.95357 12.037 2.94507 10 2.94507Z" fill="white"/>
<path id="Vector_2" d="M9.9999 6.59509C9.23845 6.59509 8.49409 6.82089 7.86096 7.24393C7.22783 7.66698 6.73437 8.26827 6.44297 8.97176C6.15157 9.67526 6.07533 10.4494 6.22388 11.1962C6.37243 11.943 6.73911 12.629 7.27754 13.1675C7.81598 13.7059 8.50198 14.0726 9.24881 14.2211C9.99563 14.3697 10.7697 14.2934 11.4732 14.002C12.1767 13.7106 12.778 13.2172 13.2011 12.584C13.6241 11.9509 13.8499 11.2066 13.8499 10.4451C13.8499 9.42401 13.4443 8.44475 12.7223 7.72273C12.0003 7.00072 11.021 6.59509 9.9999 6.59509ZM9.9999 12.9451C9.50545 12.9451 9.0221 12.7985 8.61098 12.5238C8.19986 12.2491 7.87942 11.8586 7.69021 11.4018C7.50099 10.945 7.45148 10.4423 7.54794 9.95737C7.6444 9.47241 7.88251 9.02696 8.23214 8.67733C8.58177 8.32769 9.02723 8.08959 9.51218 7.99313C9.99713 7.89667 10.4998 7.94617 10.9566 8.13539C11.4134 8.32461 11.8039 8.64504 12.0786 9.05617C12.3533 9.46729 12.4999 9.95064 12.4999 10.4451C12.4999 11.1081 12.2365 11.744 11.7677 12.2129C11.2988 12.6817 10.6629 12.9451 9.9999 12.9451Z" fill="white"/>
<path id="Vector_3" d="M14.0035 7.34163C14.5006 7.34163 14.9035 6.93868 14.9035 6.44163C14.9035 5.94457 14.5006 5.54163 14.0035 5.54163C13.5065 5.54163 13.1035 5.94457 13.1035 6.44163C13.1035 6.93868 13.5065 7.34163 14.0035 7.34163Z" fill="white"/>
</g>
</svg>
