<svg width="45" height="44" viewBox="0 0 45 44" fill="none" xmlns="http://www.w3.org/2000/svg">
<g id="Image 45" clip-path="url(#clip0_126_674)">
<g id="Group">
<g id="Group_2">
<g id="Group_3">
<g id="Group_4">
<g id="Group_5">
<g id="Group_6">
<g id="Layer_1">
<path id="Vector" d="M22.4996 42.6838C35.1249 42.6838 45.3596 33.1314 45.3596 21.3478C45.3596 9.56426 35.1249 0.0118103 22.4996 0.0118103C9.87442 0.0118103 -0.360352 9.56426 -0.360352 21.3478C-0.360352 33.1314 9.87442 42.6838 22.4996 42.6838Z" fill="#FDF2F2"/>
</g>
<g id="Layer_1_2">
<path id="Vector_2" d="M33.9878 25.3777H11.0018C10.2458 25.3777 9.63379 25.9489 9.63379 26.6545V30.6361C9.63379 31.3417 10.2458 31.9129 11.0018 31.9129H33.9878C34.7438 31.9129 35.3648 31.3417 35.3648 30.6361V26.6545C35.3648 25.9489 34.7438 25.3777 33.9878 25.3777Z" fill="#171A1F"/>
</g>
<g id="Layer_1_3">
<path id="Vector_3" d="M24.685 11.3035C25.117 10.8331 25.378 10.2199 25.378 9.55632C25.378 8.06952 24.082 6.85992 22.489 6.85992C20.896 6.85992 19.6 8.06952 19.6 9.55632C19.6 10.2283 19.861 10.8331 20.293 11.3035C15.154 12.8827 11.275 19.6951 11.248 24.7687H33.712C33.712 19.6951 29.824 12.8827 24.685 11.3035Z" fill="#ED7D2D"/>
</g>
</g>
</g>
</g>
</g>
</g>
</g>
</g>
<defs>
<clipPath id="clip0_126_674">
<rect width="45" height="43" fill="white" transform="translate(0 0.772797)"/>
</clipPath>
</defs>
</svg>
