<svg width="40" height="41" viewBox="0 0 40 41" fill="none" xmlns="http://www.w3.org/2000/svg">
<g id="Image 42" clip-path="url(#clip0_126_708)">
<g id="Group">
<g id="Group_2">
<g id="Group_3">
<g id="Group_4">
<g id="Group_5">
<g id="Group_6">
<g id="Layer_1">
<path id="Vector" d="M-0.320312 20.7728C-0.320312 9.54879 8.77569 0.452789 19.9997 0.452789C31.2237 0.452789 40.3197 9.54879 40.3197 20.7728C40.3197 31.9968 31.2237 41.0928 19.9997 41.0928C8.77569 41.0928 -0.320312 31.9968 -0.320312 20.7728Z" fill="#F1F8FD"/>
</g>
<g id="Layer_1_2">
<path id="Vector_2" d="M26.6768 11.1352L7.71684 30.1672C7.43684 30.4472 7.43684 30.9112 7.71684 31.1912C7.99684 31.4712 8.46084 31.4712 8.74084 31.1912L27.7328 12.1992C28.7728 11.1592 30.7408 11.5832 31.0288 13.4712C31.1088 13.9992 30.8528 14.4952 30.4528 14.8472C30.1008 15.1512 30.1088 15.7032 30.4768 15.9992C30.7808 16.2472 31.2288 16.1992 31.5008 15.9192C32.8048 14.5912 32.7968 12.4472 31.4768 11.1352C30.1648 9.8152 28.0048 9.8152 26.6768 11.1352Z" fill="#00BDD6"/>
</g>
<g id="Layer_1_3">
<path id="Vector_3" d="M17.971 16.3396C12.067 22.8356 8.267 28.5316 9.387 29.6596C10.507 30.7876 16.203 26.9796 22.707 21.0836C24.051 19.8676 27.227 17.6116 27.227 17.6116V15.6836H25.299V13.7556H23.371V11.8276H21.443C21.435 11.8196 19.187 14.9956 17.971 16.3396Z" fill="#66B2EC"/>
</g>
<g id="Layer_1_4">
<path id="Vector_4" d="M17.9412 16.3768C17.4612 16.9128 16.9892 17.4408 16.5332 17.9608L21.1012 22.5288C21.6212 22.0728 22.1492 21.6008 22.6852 21.1208L17.9412 16.3768Z" fill="#00BDD6"/>
</g>
<g id="Layer_1_5">
<path id="Vector_5" d="M20.2546 18.6828L17.9666 16.3948C17.4866 16.9308 17.0146 17.4588 16.5586 17.9788L18.7586 20.1788C19.1746 20.5948 19.8386 20.5948 20.2546 20.1788C20.6626 19.7628 20.6626 19.0988 20.2546 18.6828Z" fill="#00BDD6"/>
</g>
<g id="Layer_1_6">
<path id="Vector_6" d="M19.3301 19.6688C19.5598 19.6688 19.7461 19.4825 19.7461 19.2528C19.7461 19.023 19.5598 18.8368 19.3301 18.8368C19.1003 18.8368 18.9141 19.023 18.9141 19.2528C18.9141 19.4825 19.1003 19.6688 19.3301 19.6688Z" fill="#F1F8FD"/>
</g>
</g>
</g>
</g>
</g>
</g>
</g>
</g>
<defs>
<clipPath id="clip0_126_708">
<rect width="40" height="40" fill="white" transform="translate(0 0.772797)"/>
</clipPath>
</defs>
</svg>
