<svg width="16" height="17" viewBox="0 0 16 17" fill="none" xmlns="http://www.w3.org/2000/svg">
<g id="Shopping cart">
<path id="Vector" d="M2 2.44505L4.4 2.44505L4.4 8.44505C4.4 9.10745 4.9376 9.64505 5.6 9.64505L11.5352 9.64505C12.052 9.64505 12.5104 9.31465 12.6736 8.82425L14 4.84505L4.4 4.84505" stroke="#171A1F" stroke-width="0.8" stroke-linecap="round" stroke-linejoin="round"/>
<path id="Vector_2" d="M4.8001 14.4451C5.46284 14.4451 6.0001 13.9078 6.0001 13.2451C6.0001 12.5823 5.46284 12.0451 4.8001 12.0451C4.13736 12.0451 3.6001 12.5823 3.6001 13.2451C3.6001 13.9078 4.13736 14.4451 4.8001 14.4451Z" stroke="#171A1F" stroke-width="0.8" stroke-linecap="round" stroke-linejoin="round"/>
<path id="Vector_3" d="M11.9998 14.4451C12.6625 14.4451 13.1998 13.9078 13.1998 13.2451C13.1998 12.5823 12.6625 12.0451 11.9998 12.0451C11.3371 12.0451 10.7998 12.5823 10.7998 13.2451C10.7998 13.9078 11.3371 14.4451 11.9998 14.4451Z" stroke="#171A1F" stroke-width="0.8" stroke-linecap="round" stroke-linejoin="round"/>
</g>
</svg>
