<svg width="12" height="13" viewBox="0 0 12 13" fill="none" xmlns="http://www.w3.org/2000/svg">
<g id="Frame">
<path id="Vector" d="M5.61811 1.87296C5.75936 1.53335 6.24046 1.53336 6.38171 1.87296L7.54351 4.66626C7.60306 4.80943 7.73771 4.90725 7.89226 4.91964L10.9079 5.1614C11.2745 5.19079 11.4232 5.64833 11.1438 5.8876L8.84626 7.85575C8.72851 7.9566 8.67706 8.1149 8.71306 8.2657L9.41501 11.2084C9.50036 11.5662 9.11111 11.8489 8.79726 11.6572L6.21546 10.0803C6.08316 9.9995 5.91671 9.9995 5.78441 10.0803L3.20261 11.6572C2.88872 11.8489 2.49951 11.5662 2.58485 11.2084L3.2868 8.2657C3.32278 8.1149 3.27135 7.9566 3.15359 7.85575L0.856018 5.8876C0.576683 5.64833 0.725348 5.19079 1.09198 5.1614L4.10758 4.91964C4.26214 4.90725 4.39678 4.80943 4.45633 4.66626L5.61811 1.87296Z" fill="url(#paint0_linear_126_970)"/>
</g>
<defs>
<linearGradient id="paint0_linear_126_970" x1="0.710938" y1="1.61826" x2="11.2889" y2="1.61826" gradientUnits="userSpaceOnUse">
<stop offset="0.4999" stop-color="#F3C63F"/>
<stop offset="0.5" stop-color="#F3C63F"/>
</linearGradient>
</defs>
</svg>
