<svg width="41" height="42" viewBox="0 0 41 42" fill="none" xmlns="http://www.w3.org/2000/svg">
<g id="Image 44" clip-path="url(#clip0_126_690)">
<g id="Group">
<g id="Group_2">
<g id="Group_3">
<g id="Group_4">
<g id="Group_5">
<g id="Group_6">
<g id="Layer_1">
<path id="Vector" d="M20.4997 41.5928C31.7221 41.5928 40.8197 32.4952 40.8197 21.2728C40.8197 10.0504 31.7221 0.952789 20.4997 0.952789C9.27726 0.952789 0.179688 10.0504 0.179688 21.2728C0.179688 32.4952 9.27726 41.5928 20.4997 41.5928Z" fill="#EEFDF3"/>
</g>
<g id="Layer_1_2">
<path id="Vector_2" d="M30.5434 12.0288H10.4474C9.73537 12.0288 9.15137 12.6048 9.15137 13.3248V29.2208C9.15137 29.9328 9.72737 30.5168 10.4474 30.5168H30.5514C31.2634 30.5168 31.8474 29.9408 31.8474 29.2208V13.3248C31.8394 12.6048 31.2634 12.0288 30.5434 12.0288Z" fill="#00BDD6"/>
</g>
<g id="Layer_1_3">
<path id="Vector_3" d="M23.5834 18.8408C22.2394 18.8408 21.1514 19.9288 21.1514 21.2728C21.1514 22.6168 22.2394 23.7048 23.5834 23.7048H31.8474V18.8408H23.5834Z" fill="#171A1F"/>
</g>
<g id="Layer_1_4">
<path id="Vector_4" d="M23.6597 22.2968C24.2253 22.2968 24.6837 21.8383 24.6837 21.2728C24.6837 20.7072 24.2253 20.2488 23.6597 20.2488C23.0942 20.2488 22.6357 20.7072 22.6357 21.2728C22.6357 21.8383 23.0942 22.2968 23.6597 22.2968Z" fill="white"/>
</g>
</g>
</g>
</g>
</g>
</g>
</g>
</g>
<defs>
<clipPath id="clip0_126_690">
<rect width="41" height="41" fill="white" transform="translate(0 0.772797)"/>
</clipPath>
</defs>
</svg>
