<svg width="16" height="17" viewBox="0 0 16 17" fill="none" xmlns="http://www.w3.org/2000/svg">
<g id="Apple">
<path id="Vector" d="M12.7999 11.3589C12.6021 11.8327 12.3591 12.2862 12.0743 12.7133C11.6031 13.4333 10.9391 14.3237 10.1151 14.3317C9.38395 14.3389 9.19595 13.8557 8.20315 13.8613C7.21035 13.8669 7.00315 14.3413 6.27195 14.3333C5.44875 14.3261 4.81915 13.5189 4.34795 12.8013C3.03035 10.7957 2.89195 8.44135 3.70795 7.19015C3.95346 6.78166 4.29536 6.43957 4.70372 6.19383C5.11208 5.94809 5.57444 5.80619 6.05035 5.78055C6.92235 5.78055 7.47115 6.26055 8.19275 6.26055C8.89275 6.26055 9.31915 5.78055 10.3279 5.78055C10.747 5.79957 11.1567 5.9109 11.5277 6.10658C11.8987 6.30227 12.222 6.57747 12.4743 6.91255C12.064 7.13967 11.7274 7.47956 11.5042 7.892C11.2809 8.30444 11.1805 8.77219 11.2148 9.2399C11.249 9.70762 11.4165 10.1557 11.6974 10.5313C11.9783 10.9068 12.3609 11.194 12.7999 11.3589Z" stroke="#565E6C" stroke-width="0.8" stroke-linecap="round" stroke-linejoin="round"/>
<path id="Vector_2" d="M10.08 4.09335C10.3266 3.79469 10.5112 3.44981 10.6229 3.07891C10.7346 2.70801 10.7711 2.31855 10.7304 1.93335C9.93844 2.02715 9.21164 2.418 8.69676 3.02695C8.44402 3.31154 8.25417 3.64625 8.13961 4.00922C8.02506 4.37219 7.98837 4.75524 8.03196 5.13335C8.42934 5.12403 8.81958 5.02577 9.174 4.8458C9.52841 4.66582 9.83798 4.40871 10.08 4.09335Z" fill="#565E6C"/>
</g>
</svg>
