<svg width="17" height="17" viewBox="0 0 17 17" fill="none" xmlns="http://www.w3.org/2000/svg">
<g id="Google">
<path id="Vector" d="M14.2532 7.24254L8.52605 7.24254V9.69694H11.772C11.252 11.3333 9.97205 11.8789 8.50005 11.8789C7.92975 11.8797 7.36768 11.7429 6.86154 11.4801C6.35539 11.2173 5.92011 10.8363 5.59262 10.3694C5.26514 9.90245 5.05511 9.36344 4.98036 8.79806C4.90561 8.23268 4.96835 7.65761 5.16325 7.12164C5.35815 6.58568 5.67946 6.10464 6.09992 5.71933C6.52037 5.33403 7.02757 5.05583 7.57847 4.90835C8.12938 4.76087 8.70773 4.74846 9.26445 4.87216C9.82117 4.99586 10.3398 5.25204 10.7764 5.61894L12.56 3.92014C11.8418 3.25858 10.9729 2.78231 10.0289 2.53269C9.08484 2.28307 8.09413 2.26764 7.14276 2.48774C6.19139 2.70783 5.30812 3.1568 4.56961 3.79568C3.83111 4.43455 3.2597 5.24402 2.90498 6.15381C2.55026 7.0636 2.42296 8.04622 2.53412 9.01636C2.64528 9.98651 2.99155 10.9149 3.54286 11.7208C4.09418 12.5268 4.83388 13.1861 5.69775 13.6413C6.56162 14.0966 7.52355 14.3341 8.50005 14.3333C11.8084 14.3333 14.7988 12.1513 14.2532 7.24254Z" fill="#C71610"/>
</g>
</svg>
