<svg width="96" height="97" viewBox="0 0 96 97" fill="none" xmlns="http://www.w3.org/2000/svg">
<g id="Image 45" clip-path="url(#clip0_126_110)">
<g id="Group">
<g id="Group_2">
<g id="Group_3">
<g id="Group_4">
<g id="Group_5">
<g id="Group_6">
<g id="Layer_1">
<path id="Vector" d="M48.0002 96.2933C74.6535 96.2933 96.2602 74.6866 96.2602 48.0333C96.2602 21.3801 74.6535 -0.226685 48.0002 -0.226685C21.347 -0.226685 -0.259766 21.3801 -0.259766 48.0333C-0.259766 74.6866 21.347 96.2933 48.0002 96.2933Z" fill="#FDF2F2"/>
</g>
<g id="Layer_1_2">
<path id="Vector_2" d="M72.2636 56.1523H23.7376C22.1416 56.1523 20.8496 57.4443 20.8496 59.0403V68.0463C20.8496 69.6423 22.1416 70.9343 23.7376 70.9343H72.2636C73.8596 70.9343 75.1706 69.6423 75.1706 68.0463V59.0403C75.1706 57.4443 73.8596 56.1523 72.2636 56.1523Z" fill="#171A1F"/>
</g>
<g id="Layer_1_3">
<path id="Vector_3" d="M52.615 26.0503C53.527 24.9863 54.078 23.5993 54.078 22.0983C54.078 18.7353 51.342 15.9993 47.979 15.9993C44.616 15.9993 41.88 18.7353 41.88 22.0983C41.88 23.6183 42.431 24.9863 43.343 26.0503C32.494 29.6223 24.305 45.0313 24.248 56.5073H71.672C71.672 45.0313 63.464 29.6223 52.615 26.0503Z" fill="#ED7D2D"/>
</g>
</g>
</g>
</g>
</g>
</g>
</g>
</g>
<defs>
<clipPath id="clip0_126_110">
<rect width="96" height="96" fill="white" transform="translate(0 0.0333252)"/>
</clipPath>
</defs>
</svg>
