<svg width="96" height="97" viewBox="0 0 96 97" fill="none" xmlns="http://www.w3.org/2000/svg">
<g id="Image 42" clip-path="url(#clip0_126_51)">
<g id="Group">
<g id="Group_2">
<g id="Group_3">
<g id="Group_4">
<g id="Group_5">
<g id="Group_6">
<g id="Layer_1">
<path id="Vector" d="M-0.259766 48.0333C-0.259766 21.3763 21.3432 -0.226685 48.0002 -0.226685C74.6572 -0.226685 96.2602 21.3763 96.2602 48.0333C96.2602 74.6903 74.6572 96.2933 48.0002 96.2933C21.3432 96.2933 -0.259766 74.6903 -0.259766 48.0333Z" fill="#F1F8FD"/>
</g>
<g id="Layer_1_2">
<path id="Vector_2" d="M63.8627 25.144L18.8327 70.345C18.1677 71.01 18.1677 72.112 18.8327 72.777C19.4977 73.442 20.5997 73.442 21.2647 72.777L66.3707 27.671C68.8407 25.201 73.5147 26.208 74.1987 30.692C74.3887 31.946 73.7807 33.124 72.8307 33.96C71.9947 34.682 72.0137 35.993 72.8877 36.696C73.6097 37.285 74.6737 37.171 75.3197 36.506C78.4167 33.352 78.3977 28.26 75.2627 25.144C72.1467 22.009 67.0167 22.009 63.8627 25.144Z" fill="#00BDD6"/>
</g>
<g id="Layer_1_3">
<path id="Vector_3" d="M43.1338 37.5082C29.1118 52.9362 20.0868 66.4642 22.7468 69.1432C25.4068 71.8222 38.9347 62.7782 54.3817 48.7752C57.5737 45.8872 65.1167 40.5292 65.1167 40.5292V35.9502H60.5378V31.3712H55.9588V26.7922H51.3798C51.3608 26.7732 46.0218 34.3162 43.1338 37.5082Z" fill="#66B2EC"/>
</g>
<g id="Layer_1_4">
<path id="Vector_4" d="M43.0891 37.5478C41.9491 38.8208 40.8281 40.0748 39.7451 41.3098L50.5941 52.1588C51.8291 51.0758 53.0831 49.9548 54.3561 48.8148L43.0891 37.5478Z" fill="#00BDD6"/>
</g>
<g id="Layer_1_5">
<path id="Vector_5" d="M48.5563 43.0133L43.1223 37.5793C41.9823 38.8523 40.8613 40.1063 39.7783 41.3413L45.0033 46.5663C45.9913 47.5543 47.5683 47.5543 48.5563 46.5663C49.5253 45.5783 49.5253 44.0013 48.5563 43.0133Z" fill="#00BDD6"/>
</g>
<g id="Layer_1_6">
<path id="Vector_6" d="M46.3903 45.3813C46.936 45.3813 47.3783 44.939 47.3783 44.3933C47.3783 43.8477 46.936 43.4053 46.3903 43.4053C45.8447 43.4053 45.4023 43.8477 45.4023 44.3933C45.4023 44.939 45.8447 45.3813 46.3903 45.3813Z" fill="#F1F8FD"/>
</g>
</g>
</g>
</g>
</g>
</g>
</g>
</g>
<defs>
<clipPath id="clip0_126_51">
<rect width="96" height="96" fill="white" transform="translate(0 0.0333252)"/>
</clipPath>
</defs>
</svg>
