<svg width="96" height="97" viewBox="0 0 96 97" fill="none" xmlns="http://www.w3.org/2000/svg">
<g id="Image 41" clip-path="url(#clip0_126_34)">
<g id="Group">
<g id="Group_2">
<g id="Group_3">
<g id="Group_4">
<g id="Group_5">
<g id="Group_6">
<g id="Layer_1">
<path id="Vector" d="M48.0002 96.2933C74.6535 96.2933 96.2602 74.6866 96.2602 48.0333C96.2602 21.3801 74.6535 -0.226685 48.0002 -0.226685C21.347 -0.226685 -0.259766 21.3801 -0.259766 48.0333C-0.259766 74.6866 21.347 96.2933 48.0002 96.2933Z" fill="#EBFDFF"/>
</g>
<g id="Layer_1_2">
<path id="Vector_2" d="M80.4329 58.3756L67.9879 39.5466C54.4409 43.7266 42.2429 44.0686 27.9929 39.5466L15.5479 58.3756C14.1419 60.5226 14.6169 63.4106 16.6879 64.9496C35.2699 78.6676 60.7109 78.6676 79.2929 64.9496C81.3639 63.4106 81.8389 60.5226 80.4329 58.3756Z" fill="#4CE77F"/>
</g>
<g id="Layer_1_3">
<path id="Vector_3" d="M61.3199 41.4743C61.2629 41.1893 61.1869 40.8853 61.1299 40.6003C55.9809 17.4013 51.1739 14.7223 48.0009 14.7223C44.8279 14.7223 40.0209 17.4013 34.8719 40.6003C34.8149 40.9043 34.7389 41.2083 34.6819 41.4933C32.1739 53.0833 30.5399 65.6993 30.2549 72.3303C31.5849 72.8053 32.9149 73.2233 34.2639 73.5843C34.3779 67.5803 36.0309 54.3753 38.6529 42.2533C38.7099 41.9873 38.7669 41.7403 38.8239 41.4743C42.7949 23.5193 46.5569 18.7693 48.0009 18.7693C49.4449 18.7693 53.2069 23.5193 57.1779 41.4743C57.2349 41.7213 57.2919 41.9683 57.3489 42.2153C59.9899 54.3563 61.6429 67.5803 61.7569 73.5843C63.1059 73.2233 64.4359 72.8053 65.7659 72.3303C65.4619 65.6993 63.8279 53.0643 61.3199 41.4743Z" fill="#171A1F"/>
</g>
</g>
</g>
</g>
</g>
</g>
</g>
</g>
<defs>
<clipPath id="clip0_126_34">
<rect width="96" height="96" fill="white" transform="translate(0 0.0333252)"/>
</clipPath>
</defs>
</svg>
