<svg width="96" height="97" viewBox="0 0 96 97" fill="none" xmlns="http://www.w3.org/2000/svg">
<g id="Image 47" clip-path="url(#clip0_126_138)">
<g id="Group">
<g id="Group_2">
<g id="Group_3">
<g id="Group_4">
<g id="Group_5">
<g id="Group_6">
<g id="Layer_1">
<path id="Vector" d="M48.0002 96.2933C74.6535 96.2933 96.2602 74.6866 96.2602 48.0333C96.2602 21.3801 74.6535 -0.226685 48.0002 -0.226685C21.347 -0.226685 -0.259766 21.3801 -0.259766 48.0333C-0.259766 74.6866 21.347 96.2933 48.0002 96.2933Z" fill="#F5F2FD"/>
</g>
<g id="Layer_1_2">
<path id="Vector_2" d="M60.7306 43.6933C60.7116 43.6743 60.6926 43.6553 60.6736 43.6553L62.0416 31.3623C61.1486 29.4433 59.8566 26.9353 59.8566 24.1993C59.8566 19.8673 61.7566 14.3573 61.7566 14.3573H56.1706V18.6133C56.1706 23.1923 52.5416 26.9163 48.0766 26.9163C48.0576 26.9163 48.0196 26.9163 48.0006 26.9163C47.9816 26.9163 47.9436 26.9163 47.9246 26.9163C43.4596 26.9163 39.8306 23.1923 39.8306 18.6133V14.3573H34.2446C34.2446 14.3573 36.1446 19.8673 36.1446 24.1993C36.1446 26.9353 34.8336 29.4243 33.9596 31.3623L35.3846 44.3013C28.3166 55.5683 25.2766 66.8163 31.1286 78.0833C31.8126 79.3943 33.1426 80.2493 34.6246 80.2493H61.1106C62.5356 80.2493 63.8846 79.4703 64.5496 78.2163C70.6486 66.6833 68.0836 55.1883 60.7306 43.6933Z" fill="#00BDD6"/>
</g>
<g id="Layer_1_3">
<path id="Vector_3" d="M48.0003 32.8493C48.8817 32.8493 49.5963 32.1347 49.5963 31.2533C49.5963 30.3718 48.8817 29.6573 48.0003 29.6573C47.1189 29.6573 46.4043 30.3718 46.4043 31.2533C46.4043 32.1347 47.1189 32.8493 48.0003 32.8493Z" fill="#171A1F"/>
</g>
<g id="Layer_1_4">
<path id="Vector_4" d="M48.0003 38.8093C48.8817 38.8093 49.5963 38.0948 49.5963 37.2133C49.5963 36.3319 48.8817 35.6173 48.0003 35.6173C47.1189 35.6173 46.4043 36.3319 46.4043 37.2133C46.4043 38.0948 47.1189 38.8093 48.0003 38.8093Z" fill="#171A1F"/>
</g>
</g>
</g>
</g>
</g>
</g>
</g>
</g>
<defs>
<clipPath id="clip0_126_138">
<rect width="96" height="96" fill="white" transform="translate(0 0.0333252)"/>
</clipPath>
</defs>
</svg>
