<svg width="96" height="97" viewBox="0 0 96 97" fill="none" xmlns="http://www.w3.org/2000/svg">
<g id="Image 43" clip-path="url(#clip0_126_72)">
<g id="Group">
<g id="Group_2">
<g id="Group_3">
<g id="Group_4">
<g id="Group_5">
<g id="Group_6">
<g id="Layer_1">
<path id="Vector" d="M48.0002 96.2933C74.6535 96.2933 96.2602 74.6866 96.2602 48.0333C96.2602 21.3801 74.6535 -0.226685 48.0002 -0.226685C21.347 -0.226685 -0.259766 21.3801 -0.259766 48.0333C-0.259766 74.6866 21.347 96.2933 48.0002 96.2933Z" fill="#FDF2F2"/>
</g>
<g id="Layer_1_2">
<path id="Vector_2" d="M74.2776 41.4783L54.5556 21.7563L47.8866 24.9673L24.9346 47.9193L21.7236 54.5883L41.4456 74.3103L48.1146 71.0993L71.0666 48.1473L74.2776 41.4783Z" fill="#171A1F"/>
</g>
<g id="Layer_1_3">
<path id="Vector_3" d="M48.0875 64.3258L64.2725 48.1408L47.8925 31.7608L31.7075 47.9458L48.0875 64.3258Z" fill="white"/>
</g>
<g id="Layer_1_4">
<path id="Vector_4" d="M78.3792 32.1138L63.9102 17.6448L53.0422 28.5128L67.5112 42.9818L78.3792 32.1138Z" fill="#F2C263"/>
</g>
<g id="Layer_1_5">
<path id="Vector_5" d="M42.9583 67.5538L28.4893 53.0848L17.6213 63.9528L32.0903 78.4218L42.9583 67.5538Z" fill="#F2C263"/>
</g>
<g id="Layer_1_6">
<path id="Vector_6" d="M50.3593 48.0393L55.4893 42.9283L53.0763 40.5153L47.9653 45.6453L45.7423 47.8493L45.5713 48.0393L51.7843 54.2713L54.1973 51.8583L50.3593 48.0393Z" fill="#4069E5"/>
</g>
</g>
</g>
</g>
</g>
</g>
</g>
</g>
<defs>
<clipPath id="clip0_126_72">
<rect width="96" height="96" fill="white" transform="translate(0 0.0333252)"/>
</clipPath>
</defs>
</svg>
