<svg width="96" height="97" viewBox="0 0 96 97" fill="none" xmlns="http://www.w3.org/2000/svg">
<g id="Image 44" clip-path="url(#clip0_126_93)">
<g id="Group">
<g id="Group_2">
<g id="Group_3">
<g id="Group_4">
<g id="Group_5">
<g id="Group_6">
<g id="Layer_1">
<path id="Vector" d="M48.0002 96.2933C74.6535 96.2933 96.2602 74.6866 96.2602 48.0333C96.2602 21.3801 74.6535 -0.226685 48.0002 -0.226685C21.347 -0.226685 -0.259766 21.3801 -0.259766 48.0333C-0.259766 74.6866 21.347 96.2933 48.0002 96.2933Z" fill="#EEFDF3"/>
</g>
<g id="Layer_1_2">
<path id="Vector_2" d="M71.8646 26.0888H24.1366C22.4456 26.0888 21.0586 27.4568 21.0586 29.1668V66.9198C21.0586 68.6108 22.4266 69.9978 24.1366 69.9978H71.8836C73.5746 69.9978 74.9616 68.6298 74.9616 66.9198V29.1668C74.9426 27.4568 73.5746 26.0888 71.8646 26.0888Z" fill="#00BDD6"/>
</g>
<g id="Layer_1_3">
<path id="Vector_3" d="M55.1246 42.2573C51.9326 42.2573 49.3486 44.8413 49.3486 48.0333C49.3486 51.2253 51.9326 53.8093 55.1246 53.8093H74.7516V42.2573H55.1246Z" fill="#171A1F"/>
</g>
<g id="Layer_1_4">
<path id="Vector_4" d="M55.4105 50.4653C56.7537 50.4653 57.8425 49.3765 57.8425 48.0333C57.8425 46.6902 56.7537 45.6013 55.4105 45.6013C54.0674 45.6013 52.9785 46.6902 52.9785 48.0333C52.9785 49.3765 54.0674 50.4653 55.4105 50.4653Z" fill="white"/>
</g>
</g>
</g>
</g>
</g>
</g>
</g>
</g>
<defs>
<clipPath id="clip0_126_93">
<rect width="96" height="96" fill="white" transform="translate(0 0.0333252)"/>
</clipPath>
</defs>
</svg>
