<svg width="96" height="97" viewBox="0 0 96 97" fill="none" xmlns="http://www.w3.org/2000/svg">
<g id="Image 48" clip-path="url(#clip0_126_155)">
<g id="Group">
<g id="Group_2">
<g id="Group_3">
<g id="Group_4">
<g id="Group_5">
<g id="Group_6">
<g id="Layer_1">
<path id="Vector" d="M48.0002 96.2933C74.6535 96.2933 96.2602 74.6866 96.2602 48.0333C96.2602 21.3801 74.6535 -0.226685 48.0002 -0.226685C21.347 -0.226685 -0.259766 21.3801 -0.259766 48.0333C-0.259766 74.6866 21.347 96.2933 48.0002 96.2933Z" fill="#FEF6F1"/>
</g>
<g id="Layer_1_2">
<path id="Vector_2" d="M79.399 32.5244H77.841C77.632 31.9544 77.366 31.3654 77.043 30.7954C74.174 25.7224 67.847 24.3734 63.876 28.5344C60.057 24.5254 54.034 25.6274 51.051 30.2444C49.854 29.3324 48.562 28.8764 47.194 28.9144C45.712 28.9524 44.477 29.5794 43.546 30.2634C40.544 25.6464 34.54 24.5254 30.702 28.5344C26.731 24.3734 20.385 25.7224 17.535 30.7954C17.212 31.3844 16.946 31.9544 16.737 32.5244H15.179C13.925 32.5244 12.918 33.5314 12.918 34.7854C12.918 36.0394 13.925 37.0464 15.179 37.0464H16.091C16.11 37.1414 16.11 37.2554 16.129 37.3314C17.497 46.4894 30.702 53.9184 30.702 53.9184C30.702 53.9184 43.907 46.4894 45.275 37.3314C45.427 36.3244 45.389 34.9944 44.99 33.5314C45.503 33.0184 46.339 32.3724 47.27 32.3534C48.011 32.3534 48.771 32.7334 49.55 33.5314C49.17 34.9944 49.132 36.3244 49.265 37.3314C50.633 46.4894 63.838 53.9184 63.838 53.9184C63.838 53.9184 77.043 46.4894 78.411 37.3314C78.43 37.2364 78.43 37.1414 78.449 37.0464H79.361C80.615 37.0464 81.622 36.0394 81.622 34.7854C81.66 33.5504 80.634 32.5244 79.399 32.5244Z" fill="#00BDD6"/>
</g>
<g id="Layer_1_3">
<path id="Vector_3" d="M63.6401 49.0198C61.5881 47.7848 54.2161 43.0348 53.3611 37.5628C53.2851 37.0688 53.1331 35.3398 54.3301 33.2878C55.4131 31.4258 57.3131 30.2668 59.2891 30.2668C60.6381 30.2668 61.8731 30.7988 62.8611 31.8058L63.6401 32.6038L64.4191 31.8058C65.4071 30.7988 66.6421 30.2668 67.9911 30.2668C69.9671 30.2668 71.8671 31.4258 72.9501 33.2878C74.1471 35.3398 73.9951 37.0878 73.9191 37.5628C73.0831 43.0348 65.7111 47.7848 63.6401 49.0198Z" fill="white"/>
</g>
<g id="Layer_1_4">
<path id="Vector_4" d="M30.9204 49.0198C28.8684 47.7848 21.4964 43.0348 20.6414 37.5628C20.5654 37.0688 20.4134 35.3398 21.6104 33.2878C22.6934 31.4258 24.5934 30.2668 26.5694 30.2668C27.9184 30.2668 29.1534 30.7988 30.1414 31.8058L30.9204 32.6038L31.6994 31.8058C32.6874 30.7988 33.9224 30.2668 35.2714 30.2668C37.2474 30.2668 39.1474 31.4258 40.2304 33.2878C41.4274 35.3398 41.2754 37.0878 41.1994 37.5628C40.3444 43.0348 32.9724 47.7848 30.9204 49.0198Z" fill="white"/>
</g>
<g id="Layer_1_5">
<path id="Vector_5" d="M65.8341 69.2544C65.8341 67.2594 56.5241 60.6854 52.7051 60.6854C51.4891 60.6854 50.3301 61.0274 49.3421 61.6164C48.6961 61.9964 47.9931 62.1864 47.2901 62.1674C46.5871 62.1674 45.8841 61.9964 45.2381 61.6164C44.2501 61.0274 43.0911 60.6854 41.8751 60.6854C38.0561 60.6854 28.7461 67.2404 28.7461 69.2544C28.7461 70.7554 36.6501 78.8684 47.2711 78.6974H47.2901H47.3091C57.9301 78.8684 65.8341 70.7364 65.8341 69.2544Z" fill="#00BDD6"/>
</g>
<g id="Layer_1_6">
<path id="Vector_6" d="M60.8945 69.6933C60.8945 69.6933 54.7955 71.4413 47.2905 71.4413C39.7665 71.4413 33.6865 69.6933 33.6865 69.6933C33.6865 69.6933 39.7855 67.9453 47.2905 67.9453C54.7955 67.9453 60.8945 69.6933 60.8945 69.6933Z" fill="white"/>
</g>
</g>
</g>
</g>
</g>
</g>
</g>
</g>
<defs>
<clipPath id="clip0_126_155">
<rect width="96" height="96" fill="white" transform="translate(0 0.0333252)"/>
</clipPath>
</defs>
</svg>
