<svg width="96" height="97" viewBox="0 0 96 97" fill="none" xmlns="http://www.w3.org/2000/svg">
<g id="Image 46" clip-path="url(#clip0_126_125)">
<g id="Group">
<g id="Group_2">
<g id="Group_3">
<g id="Group_4">
<g id="Group_5">
<g id="Group_6">
<g id="Layer_1">
<path id="Vector" d="M48.0002 96.2933C74.6535 96.2933 96.2602 74.6866 96.2602 48.0333C96.2602 21.3801 74.6535 -0.226685 48.0002 -0.226685C21.347 -0.226685 -0.259766 21.3801 -0.259766 48.0333C-0.259766 74.6866 21.347 96.2933 48.0002 96.2933Z" fill="#F1F4FD"/>
</g>
<g id="Layer_1_2">
<path id="Vector_2" d="M68.7483 33.1003L73.1373 25.7093C64.9103 14.4803 55.3153 15.4303 55.3153 15.4303L48.0003 27.2483L40.8563 15.7343L40.6853 15.4303C40.6853 15.4303 31.0903 14.4803 22.8633 25.7093L27.2523 33.1003L32.9903 28.1603C32.9903 28.1603 40.5333 41.1753 32.4393 52.9553C32.4393 52.9553 27.7653 61.4863 29.2283 75.6983C29.3423 76.8003 30.2733 77.6553 31.3943 77.6553H37.4933H58.5073H64.6063C65.7083 77.6553 66.6583 76.8003 66.7723 75.6983C68.2353 61.4673 63.5613 52.9553 63.5613 52.9553C55.4673 41.1753 63.0103 28.1603 63.0103 28.1603L68.7483 33.1003Z" fill="#ED7D2D"/>
</g>
</g>
</g>
</g>
</g>
</g>
</g>
</g>
<defs>
<clipPath id="clip0_126_125">
<rect width="96" height="96" fill="white" transform="translate(0 0.0333252)"/>
</clipPath>
</defs>
</svg>
