<svg width="17" height="17" viewBox="0 0 17 17" fill="none" xmlns="http://www.w3.org/2000/svg">
<g id="Logo facebook">
<path id="Vector" d="M14.9 8.33334C14.8998 7.11031 14.5492 5.91294 13.8896 4.88299C13.2301 3.85304 12.2892 3.03364 11.1784 2.52179C10.0677 2.00994 8.8335 1.82708 7.62203 1.99485C6.41056 2.16262 5.27253 2.67401 4.34267 3.46846C3.41281 4.26292 2.73005 5.30717 2.37523 6.4776C2.02041 7.64803 2.00838 8.89562 2.34057 10.0727C2.67276 11.2497 3.33526 12.3069 4.24964 13.1192C5.16401 13.9314 6.29197 14.4646 7.49998 14.6557L7.49998 10.1833H5.87518V8.33334L7.49998 8.33334L7.49998 6.92334C7.49998 5.31934 8.45558 4.43334 9.91718 4.43334C10.3972 4.43999 10.8761 4.48171 11.35 4.55814V6.13334H10.5428C10.4052 6.11507 10.2653 6.12799 10.1334 6.17114C10.0016 6.21429 9.88108 6.28656 9.78093 6.3826C9.68078 6.47864 9.60352 6.59599 9.55489 6.72595C9.50625 6.8559 9.48748 6.99514 9.49998 7.13334V8.33334H11.2752L10.9912 10.1833H9.49998L9.49998 14.6557C11.0055 14.4176 12.3766 13.6499 13.3665 12.4909C14.3564 11.3319 14.9002 9.85758 14.9 8.33334Z" fill="#335CA6"/>
</g>
</svg>
