<svg width="24" height="24" viewBox="0 0 24 24" fill="none" xmlns="http://www.w3.org/2000/svg">
<g id="Logo twitter 2">
<path id="Vector" d="M21.5998 6.06001C20.8798 6.36001 20.1598 6.60001 19.3198 6.66001C20.1598 6.18001 20.7598 5.40001 21.0598 4.50001C20.2798 4.98001 19.4398 5.28001 18.5398 5.46001C17.8198 4.68001 16.7998 4.20001 15.7198 4.20001C13.5598 4.20001 11.7598 5.94001 11.7598 8.16001C11.7598 8.46001 11.8198 8.76001 11.8798 9.06001C8.57984 8.88001 5.69984 7.32001 3.71984 4.92001C3.35984 5.52001 3.17984 6.18001 3.17984 6.90001C3.17984 8.28001 3.89984 9.48001 4.91984 10.2C4.25984 10.2 3.65984 10.02 3.11984 9.72001V9.78001C3.11984 11.7 4.49984 13.26 6.29984 13.62C5.93984 13.68 5.63984 13.74 5.27984 13.74C5.03984 13.74 4.79984 13.74 4.55984 13.68C5.03984 15.24 6.53984 16.38 8.21984 16.44C6.89984 17.52 5.15984 18.12 3.29984 18.12C2.99984 18.12 2.63984 18.12 2.33984 18.06C4.13984 19.14 6.23984 19.8 8.45984 19.8C15.7198 19.8 19.6798 13.8 19.6798 8.58001C19.6798 8.40001 19.6798 8.22001 19.6798 8.10001C20.3998 7.50001 21.0598 6.84001 21.5998 6.06001Z" fill="#2EBAE8"/>
</g>
</svg>
